# xmcd CD database file
#
# Track frame offsets:
#	150
#	20652
#	46880
#	68297
#	89830
#	109030
#	124407
#	143977
#	174780
#	206255
#	227210
#
# Disc length: 3180 seconds
#
# Revision: 0
# Processed by: cddbd v1.5.1PL0 Copyright (c) Steve Scherf et al.
# Submitted via: CDex 1.51
#
DISCID=920c6a0b
DTITLE=榊原大 - Piano+
DYEAR=2005
DGENRE=New Age
TTITLE0=バキアナス・ブラジレイラス No.5
TTITLE1=椰子の実
TTITLE2=暁
TTITLE3=9 Volt Beret
TTITLE4=ファイト -piano solo ver.-
TTITLE5=Dreams In The Mirror
TTITLE6=Manteca
TTITLE7=A Leaf
TTITLE8=君ガ来ル
TTITLE9=Adagio
TTITLE10=Thanks
EXTD=YEAR: 2005
EXTT0=
EXTT1=
EXTT2=
EXTT3=
EXTT4=
EXTT5=
EXTT6=
EXTT7=
EXTT8=
EXTT9=
EXTT10=
PLAYORDER=
